<svg width="2000px" height="1905px"
 viewBox="0.00 0.00 655.59 624.64" xmlns="http://www.w3.org/2000/svg" xmlns:xlink="http://www.w3.org/1999/xlink">
<g id="graph0" class="graph" transform="scale(1.0 1.0) rotate(0) translate(4 620.64)">
<title>ContextMapGraph</title>
<polygon fill="white" stroke="transparent" points="-4,4 -4,-620.64 651.59,-620.64 651.59,4 -4,4"/>
<!-- GestionAlquileres -->
<g id="node1" class="node">
<title>GestionAlquileres</title>
<polygon fill="none" stroke="black" stroke-width="2" points="402.55,-601.19 396.18,-603.11 389.61,-604.93 382.87,-606.64 375.97,-608.22 368.96,-609.69 361.84,-611.02 354.66,-612.22 347.43,-613.28 340.17,-614.19 332.92,-614.94 325.69,-615.55 318.52,-616 311.41,-616.29 304.39,-616.42 297.48,-616.39 290.69,-616.21 284.05,-615.86 277.57,-615.36 271.26,-614.71 265.14,-613.9 259.22,-612.95 253.51,-611.86 248.02,-610.63 242.75,-609.27 237.72,-607.78 232.93,-606.18 228.39,-604.46 224.1,-602.64 220.07,-600.73 216.29,-598.73 212.77,-596.65 209.52,-594.5 206.52,-592.29 203.79,-590.03 201.33,-587.72 199.13,-585.37 197.19,-583 195.52,-580.61 194.11,-578.21 192.96,-575.81 192.08,-573.42 191.45,-571.03 191.1,-568.67 191,-566.33 191.17,-564.03 191.61,-561.77 192.3,-559.55 193.27,-557.38 194.5,-555.27 195.99,-553.21 197.75,-551.22 199.78,-549.3 202.08,-547.44 204.65,-545.66 207.48,-543.95 210.59,-542.32 213.96,-540.77 217.6,-539.3 221.5,-537.91 225.66,-536.6 230.09,-535.38 234.76,-534.23 239.69,-533.17 244.86,-532.2 250.27,-531.31 255.9,-530.5 261.76,-529.78 267.82,-529.14 274.08,-528.58 280.52,-528.11 287.13,-527.73 293.9,-527.43 300.8,-527.21 307.82,-527.08 314.94,-527.03 322.13,-527.07 329.39,-527.2 336.68,-527.41 343.98,-527.71 351.27,-528.1 358.53,-528.57 365.72,-529.14 372.82,-529.8 379.81,-530.54 386.65,-531.38 393.34,-532.31 399.82,-533.33 406.09,-534.44 412.12,-535.65 417.87,-536.94 423.34,-538.33 428.49,-539.8 433.3,-541.37 437.75,-543.02 441.83,-544.75 445.51,-546.57 448.78,-548.47 451.62,-550.44 454.02,-552.48 455.98,-554.6 457.48,-556.77 458.51,-559.01 459.08,-561.3 459.17,-563.64 458.8,-566.01 457.95,-568.42 456.64,-570.86 454.86,-573.32 452.64,-575.79 449.97,-578.26 446.88,-580.72 443.37,-583.17 439.46,-585.6 435.17,-588 430.52,-590.35 425.52,-592.66 420.21,-594.9 414.59,-597.08 408.7,-599.18 402.55,-601.19"/>
<text text-anchor="middle" x="315.59" y="-564.57" font-family="sans-serif" font-size="16.00">GestionAlquileres</text>
</g>
<!-- GestionVehiculos -->
<g id="node2" class="node">
<title>GestionVehiculos</title>
<polygon fill="none" stroke="black" stroke-width="2" points="44.14,-392.56 49.79,-390.41 55.67,-388.36 61.76,-386.41 68.03,-384.58 74.45,-382.86 81.01,-381.28 87.69,-379.82 94.45,-378.51 101.28,-377.35 108.16,-376.33 115.06,-375.47 121.96,-374.77 128.84,-374.23 135.68,-373.85 142.47,-373.64 149.18,-373.59 155.8,-373.7 162.31,-373.98 168.69,-374.41 174.95,-375.01 181.05,-375.75 186.99,-376.65 192.75,-377.69 198.34,-378.87 203.73,-380.18 208.92,-381.62 213.91,-383.18 218.68,-384.85 223.23,-386.63 227.55,-388.5 231.65,-390.47 235.51,-392.51 239.13,-394.62 242.51,-396.79 245.64,-399.02 248.53,-401.3 251.16,-403.6 253.54,-405.94 255.67,-408.3 257.54,-410.67 259.15,-413.04 260.5,-415.4 261.58,-417.76 262.4,-420.1 262.95,-422.41 263.22,-424.7 263.23,-426.95 262.96,-429.16 262.41,-431.32 261.58,-433.43 260.47,-435.49 259.07,-437.49 257.39,-439.43 255.43,-441.3 253.18,-443.11 250.64,-444.86 247.82,-446.53 244.71,-448.13 241.31,-449.66 237.63,-451.12 233.68,-452.5 229.44,-453.81 224.94,-455.05 220.17,-456.21 215.15,-457.29 209.87,-458.3 204.36,-459.23 198.61,-460.08 192.65,-460.85 186.47,-461.55 180.11,-462.17 173.57,-462.71 166.87,-463.17 160.03,-463.55 153.06,-463.84 145.99,-464.05 138.84,-464.18 131.62,-464.22 124.37,-464.18 117.1,-464.05 109.84,-463.82 102.61,-463.51 95.45,-463.1 88.36,-462.59 81.39,-461.99 74.55,-461.29 67.87,-460.5 61.38,-459.6 55.09,-458.61 49.05,-457.51 43.26,-456.31 37.75,-455.01 32.55,-453.61 27.67,-452.11 23.14,-450.52 18.97,-448.82 15.17,-447.04 11.77,-445.16 8.78,-443.19 6.21,-441.14 4.06,-439.01 2.35,-436.81 1.09,-434.53 0.27,-432.19 -0.09,-429.8 -0.01,-427.35 0.52,-424.86 1.5,-422.34 2.91,-419.78 4.76,-417.21 7.03,-414.63 9.71,-412.05 12.79,-409.48 16.25,-406.93 20.08,-404.41 24.27,-401.92 28.78,-399.48 33.62,-397.1 38.74,-394.79 44.14,-392.56"/>
<text text-anchor="middle" x="139.59" y="-418.62" font-family="sans-serif" font-size="16.00">GestionVehiculos</text>
</g>
<!-- GestionAlquileres&#45;&gt;GestionVehiculos -->
<g id="edge1" class="edge">
<title>GestionAlquileres&#45;&gt;GestionVehiculos</title>
<path fill="none" stroke="black" stroke-width="2" d="M207.91,-543.6C186.03,-534.07 165.26,-520.73 150.59,-502.09 142.24,-491.47 138.67,-477.45 137.45,-464.19"/>
<text text-anchor="middle" x="226.09" y="-492.49" font-family="sans-serif" font-size="12.00"> &#160;&#160;&#160;&#160;&#160;&#160;&#160;&#160;&#160;&#160;&#160;&#160;&#160;&#160;&#160;&#160;&#160;&#160;&#160;&#160;&#160;&#160;&#160;&#160;&#160;&#160;&#160;&#160;&#160;&#160;&#160;&#160;&#160;&#160;&#160;&#160;&#160;&#160;&#160;</text>
<polygon fill="white" stroke="transparent" points="130.45,-455.19 130.45,-472.19 144.45,-472.19 144.45,-455.19 130.45,-455.19"/>
<text text-anchor="start" x="132.45" y="-460.59" font-family="sans-serif" font-size="12.00">D</text>
<polygon fill="white" stroke="transparent" points="172.91,-533.6 172.91,-552.6 188.91,-552.6 188.91,-533.6 172.91,-533.6"/>
<polyline fill="none" stroke="black" points="188.91,-533.6 188.91,-552.6 "/>
<text text-anchor="start" x="175.91" y="-540" font-family="sans-serif" font-size="12.00">U</text>
<polygon fill="white" stroke="transparent" points="188.91,-533.6 188.91,-552.6 243.91,-552.6 243.91,-533.6 188.91,-533.6"/>
<polygon fill="none" stroke="black" points="188.91,-533.6 188.91,-552.6 243.91,-552.6 243.91,-533.6 188.91,-533.6"/>
<text text-anchor="start" x="191.91" y="-540" font-family="sans-serif" font-size="12.00">OHS, PL</text>
</g>
<!-- GestionCliente -->
<g id="node3" class="node">
<title>GestionCliente</title>
<polygon fill="none" stroke="black" stroke-width="2" points="242.39,-226.84 236.55,-225.05 230.94,-223.17 225.6,-221.21 220.54,-219.19 215.78,-217.11 211.36,-214.98 207.27,-212.8 203.55,-210.58 200.21,-208.34 197.25,-206.07 194.7,-203.78 192.55,-201.49 190.83,-199.19 189.53,-196.9 188.66,-194.62 188.22,-192.36 188.21,-190.12 188.62,-187.91 189.46,-185.73 190.71,-183.58 192.37,-181.48 194.42,-179.43 196.86,-177.43 199.67,-175.48 202.83,-173.59 206.34,-171.76 210.16,-170 214.29,-168.3 218.69,-166.67 223.36,-165.11 228.27,-163.63 233.4,-162.22 238.72,-160.89 244.22,-159.63 249.86,-158.46 255.64,-157.37 261.52,-156.35 267.48,-155.43 273.51,-154.59 279.58,-153.83 285.67,-153.17 291.76,-152.59 297.83,-152.1 303.87,-151.7 309.86,-151.4 315.79,-151.18 321.63,-151.06 327.38,-151.04 333.03,-151.11 338.55,-151.28 343.95,-151.55 349.22,-151.92 354.34,-152.38 359.31,-152.95 364.12,-153.62 368.76,-154.38 373.25,-155.25 377.56,-156.22 381.69,-157.28 385.65,-158.45 389.43,-159.71 393.03,-161.07 396.44,-162.53 399.68,-164.08 402.72,-165.72 405.58,-167.45 408.26,-169.26 410.74,-171.16 413.03,-173.13 415.13,-175.18 417.03,-177.3 418.73,-179.48 420.24,-181.72 421.54,-184.01 422.63,-186.35 423.51,-188.72 424.17,-191.13 424.61,-193.57 424.83,-196.02 424.82,-198.48 424.57,-200.94 424.09,-203.4 423.36,-205.84 422.37,-208.26 421.14,-210.65 419.64,-212.99 417.88,-215.29 415.85,-217.53 413.55,-219.7 410.98,-221.8 408.13,-223.82 405.01,-225.75 401.62,-227.58 397.95,-229.3 394.01,-230.92 389.8,-232.41 385.33,-233.79 380.61,-235.03 375.64,-236.15 370.43,-237.12 364.99,-237.96 359.33,-238.65 353.48,-239.19 347.44,-239.59 341.23,-239.84 334.86,-239.94 328.37,-239.89 321.76,-239.69 315.06,-239.35 308.29,-238.86 301.48,-238.23 294.65,-237.46 287.83,-236.55 281.03,-235.51 274.29,-234.35 267.64,-233.07 261.1,-231.67 254.69,-230.16 248.44,-228.55 242.39,-226.84"/>
<text text-anchor="middle" x="315.59" y="-189.25" font-family="sans-serif" font-size="16.00">GestionCliente</text>
</g>
<!-- GestionAlquileres&#45;&gt;GestionCliente -->
<g id="edge3" class="edge">
<title>GestionAlquileres&#45;&gt;GestionCliente</title>
<path fill="none" stroke="black" stroke-width="2" d="M315.59,-526.71C315.59,-456.5 315.59,-313.04 315.59,-239.59"/>
<text text-anchor="middle" x="391.09" y="-419.32" font-family="sans-serif" font-size="12.00"> &#160;&#160;&#160;&#160;&#160;&#160;&#160;&#160;&#160;&#160;&#160;&#160;&#160;&#160;&#160;&#160;&#160;&#160;&#160;&#160;&#160;&#160;&#160;&#160;&#160;&#160;&#160;&#160;&#160;&#160;&#160;&#160;&#160;&#160;&#160;&#160;&#160;&#160;&#160;</text>
<polygon fill="white" stroke="transparent" points="308.59,-230.59 308.59,-247.59 322.59,-247.59 322.59,-230.59 308.59,-230.59"/>
<text text-anchor="start" x="310.59" y="-235.99" font-family="sans-serif" font-size="12.00">D</text>
<polygon fill="white" stroke="transparent" points="291.59,-516.71 291.59,-535.71 307.59,-535.71 307.59,-516.71 291.59,-516.71"/>
<polyline fill="none" stroke="black" points="307.59,-516.71 307.59,-535.71 "/>
<text text-anchor="start" x="294.59" y="-523.11" font-family="sans-serif" font-size="12.00">U</text>
<polygon fill="white" stroke="transparent" points="307.59,-516.71 307.59,-535.71 340.59,-535.71 340.59,-516.71 307.59,-516.71"/>
<polygon fill="none" stroke="black" points="307.59,-516.71 307.59,-535.71 340.59,-535.71 340.59,-516.71 307.59,-516.71"/>
<text text-anchor="start" x="310.59" y="-523.11" font-family="sans-serif" font-size="12.00">OHS</text>
</g>
<!-- GestionPagos -->
<g id="node5" class="node">
<title>GestionPagos</title>
<polygon fill="none" stroke="black" stroke-width="2" points="403.56,-281.96 407.5,-279.58 411.65,-277.29 416.01,-275.08 420.56,-272.98 425.28,-270.99 430.16,-269.12 435.18,-267.38 440.31,-265.77 445.56,-264.3 450.89,-262.98 456.29,-261.81 461.75,-260.79 467.25,-259.94 472.77,-259.24 478.3,-258.72 483.82,-258.35 489.33,-258.15 494.8,-258.12 500.22,-258.24 505.59,-258.53 510.88,-258.98 516.09,-259.58 521.21,-260.34 526.23,-261.24 531.13,-262.28 535.91,-263.45 540.56,-264.75 545.07,-266.17 549.44,-267.71 553.65,-269.35 557.7,-271.09 561.58,-272.92 565.29,-274.83 568.83,-276.81 572.18,-278.85 575.34,-280.96 578.3,-283.11 581.07,-285.29 583.63,-287.51 585.98,-289.76 588.12,-292.02 590.04,-294.28 591.74,-296.55 593.22,-298.82 594.46,-301.07 595.47,-303.31 596.24,-305.52 596.77,-307.7 597.06,-309.86 597.09,-311.98 596.88,-314.05 596.41,-316.09 595.69,-318.08 594.71,-320.02 593.47,-321.91 591.97,-323.74 590.2,-325.52 588.18,-327.25 585.9,-328.91 583.36,-330.52 580.57,-332.07 577.52,-333.56 574.22,-334.98 570.68,-336.35 566.9,-337.65 562.89,-338.89 558.65,-340.06 554.2,-341.17 549.54,-342.22 544.68,-343.19 539.63,-344.1 534.42,-344.94 529.04,-345.71 523.52,-346.4 517.87,-347.02 512.1,-347.56 506.24,-348.02 500.29,-348.4 494.29,-348.7 488.24,-348.91 482.16,-349.03 476.09,-349.06 470.03,-348.99 464.01,-348.83 458.04,-348.57 452.16,-348.2 446.37,-347.73 440.7,-347.15 435.17,-346.47 429.8,-345.67 424.61,-344.76 419.62,-343.74 414.85,-342.61 410.31,-341.37 406.02,-340.01 401.99,-338.54 398.25,-336.96 394.8,-335.27 391.66,-333.47 388.83,-331.58 386.33,-329.58 384.17,-327.49 382.35,-325.31 380.87,-323.04 379.75,-320.7 378.99,-318.29 378.57,-315.81 378.52,-313.28 378.81,-310.7 379.46,-308.09 380.45,-305.44 381.78,-302.77 383.45,-300.1 385.44,-297.42 387.74,-294.76 390.35,-292.11 393.25,-289.5 396.42,-286.93 399.87,-284.42 403.56,-281.96"/>
<text text-anchor="middle" x="492.59" y="-303.08" font-family="sans-serif" font-size="16.00">GestionPagos</text>
</g>
<!-- GestionAlquileres&#45;&gt;GestionPagos -->
<g id="edge2" class="edge">
<title>GestionAlquileres&#45;&gt;GestionPagos</title>
<path fill="none" stroke="black" stroke-width="2" d="M399.35,-533.08C426.24,-517.99 453.47,-497.55 470.59,-471.09 494.21,-434.61 497.54,-383.91 496.35,-348.74"/>
<text text-anchor="middle" x="530.09" y="-492.49" font-family="sans-serif" font-size="12.00"> &#160;&#160;&#160;&#160;&#160;&#160;&#160;&#160;&#160;&#160;&#160;&#160;&#160;&#160;&#160;&#160;&#160;&#160;&#160;&#160;&#160;&#160;&#160;&#160;&#160;&#160;&#160;&#160;&#160;&#160;&#160;&#160;&#160;&#160;&#160;&#160;&#160;&#160;&#160;</text>
<polygon fill="white" stroke="transparent" points="489.35,-339.74 489.35,-356.74 503.35,-356.74 503.35,-339.74 489.35,-339.74"/>
<text text-anchor="start" x="491.35" y="-345.14" font-family="sans-serif" font-size="12.00">D</text>
<polygon fill="white" stroke="transparent" points="375.35,-523.08 375.35,-542.08 391.35,-542.08 391.35,-523.08 375.35,-523.08"/>
<polyline fill="none" stroke="black" points="391.35,-523.08 391.35,-542.08 "/>
<text text-anchor="start" x="378.35" y="-529.48" font-family="sans-serif" font-size="12.00">U</text>
<polygon fill="white" stroke="transparent" points="391.35,-523.08 391.35,-542.08 424.35,-542.08 424.35,-523.08 391.35,-523.08"/>
<polygon fill="none" stroke="black" points="391.35,-523.08 391.35,-542.08 424.35,-542.08 424.35,-523.08 391.35,-523.08"/>
<text text-anchor="start" x="394.35" y="-529.48" font-family="sans-serif" font-size="12.00">OHS</text>
</g>
<!-- GestionVehiculos&#45;&gt;GestionCliente -->
<g id="edge4" class="edge">
<title>GestionVehiculos&#45;&gt;GestionCliente</title>
<path fill="none" stroke="black" stroke-width="2" d="M130.14,-373.89C125.89,-338.57 126.33,-290.98 150.59,-258 165.34,-237.95 187.27,-224.19 210.37,-214.74"/>
<text text-anchor="middle" x="226.09" y="-303.78" font-family="sans-serif" font-size="12.00"> &#160;&#160;&#160;&#160;&#160;&#160;&#160;&#160;&#160;&#160;&#160;&#160;&#160;&#160;&#160;&#160;&#160;&#160;&#160;&#160;&#160;&#160;&#160;&#160;&#160;&#160;&#160;&#160;&#160;&#160;&#160;&#160;&#160;&#160;&#160;&#160;&#160;&#160;&#160;</text>
<polygon fill="white" stroke="transparent" points="203.37,-205.74 203.37,-222.74 217.37,-222.74 217.37,-205.74 203.37,-205.74"/>
<text text-anchor="start" x="205.37" y="-211.14" font-family="sans-serif" font-size="12.00">D</text>
<polygon fill="white" stroke="transparent" points="95.14,-363.89 95.14,-382.89 111.14,-382.89 111.14,-363.89 95.14,-363.89"/>
<polyline fill="none" stroke="black" points="111.14,-363.89 111.14,-382.89 "/>
<text text-anchor="start" x="98.14" y="-370.29" font-family="sans-serif" font-size="12.00">U</text>
<polygon fill="white" stroke="transparent" points="111.14,-363.89 111.14,-382.89 166.14,-382.89 166.14,-363.89 111.14,-363.89"/>
<polygon fill="none" stroke="black" points="111.14,-363.89 111.14,-382.89 166.14,-382.89 166.14,-363.89 111.14,-363.89"/>
<text text-anchor="start" x="114.14" y="-370.29" font-family="sans-serif" font-size="12.00">OHS, PL</text>
</g>
<!-- Seguridad -->
<g id="node4" class="node">
<title>Seguridad</title>
<polygon fill="none" stroke="black" stroke-width="2" points="466.2,-79.46 462.09,-81.53 457.84,-83.51 453.44,-85.38 448.93,-87.13 444.31,-88.77 439.6,-90.27 434.83,-91.64 430.01,-92.87 425.15,-93.95 420.27,-94.88 415.38,-95.66 410.5,-96.27 405.65,-96.73 400.84,-97.03 396.08,-97.16 391.38,-97.13 386.76,-96.94 382.23,-96.59 377.79,-96.08 373.46,-95.41 369.25,-94.6 365.16,-93.63 361.2,-92.53 357.38,-91.28 353.71,-89.91 350.18,-88.41 346.8,-86.8 343.59,-85.08 340.53,-83.25 337.64,-81.33 334.92,-79.33 332.37,-77.25 329.99,-75.1 327.78,-72.89 325.75,-70.63 323.9,-68.33 322.22,-66 320.72,-63.64 319.4,-61.26 318.27,-58.88 317.31,-56.5 316.54,-54.12 315.95,-51.76 315.55,-49.42 315.33,-47.1 315.3,-44.82 315.46,-42.58 315.81,-40.38 316.35,-38.23 317.08,-36.14 318,-34.1 319.12,-32.12 320.44,-30.21 321.94,-28.36 323.65,-26.58 325.55,-24.87 327.64,-23.24 329.93,-21.68 332.42,-20.19 335.1,-18.78 337.96,-17.45 341.02,-16.19 344.25,-15.01 347.67,-13.92 351.26,-12.9 355.03,-11.95 358.95,-11.09 363.03,-10.31 367.26,-9.61 371.62,-8.99 376.12,-8.44 380.73,-7.98 385.45,-7.61 390.26,-7.31 395.15,-7.1 400.11,-6.97 405.13,-6.93 410.17,-6.97 415.24,-7.1 420.32,-7.32 425.38,-7.63 430.41,-8.03 435.39,-8.52 440.31,-9.11 445.15,-9.79 449.88,-10.57 454.49,-11.44 458.97,-12.41 463.29,-13.48 467.44,-14.64 471.4,-15.91 475.16,-17.27 478.7,-18.72 482,-20.27 485.06,-21.92 487.85,-23.66 490.38,-25.48 492.62,-27.4 494.57,-29.39 496.23,-31.47 497.57,-33.62 498.61,-35.83 499.33,-38.12 499.73,-40.46 499.82,-42.85 499.58,-45.29 499.03,-47.77 498.17,-50.27 496.99,-52.8 495.52,-55.34 493.75,-57.89 491.69,-60.43 489.35,-62.96 486.74,-65.46 483.88,-67.93 480.77,-70.36 477.44,-72.74 473.89,-75.05 470.14,-77.3 466.2,-79.46"/>
<text text-anchor="middle" x="401.59" y="-44.75" font-family="sans-serif" font-size="16.00">Seguridad</text>
</g>
<!-- GestionCliente&#45;&gt;Seguridad -->
<g id="edge5" class="edge">
<title>GestionCliente&#45;&gt;Seguridad</title>
<path fill="none" stroke="black" stroke-width="2" d="M312.8,-151.23C313.51,-139.05 315.89,-126.03 321.59,-115.11 327.24,-104.28 335.54,-94.58 344.67,-86.18"/>
<text text-anchor="middle" x="397.09" y="-118.51" font-family="sans-serif" font-size="12.00"> &#160;&#160;&#160;&#160;&#160;&#160;&#160;&#160;&#160;&#160;&#160;&#160;&#160;&#160;&#160;&#160;&#160;&#160;&#160;&#160;&#160;&#160;&#160;&#160;&#160;&#160;&#160;&#160;&#160;&#160;&#160;&#160;&#160;&#160;&#160;&#160;&#160;&#160;&#160;</text>
<polygon fill="white" stroke="transparent" points="321.67,-76.18 321.67,-95.18 337.67,-95.18 337.67,-76.18 321.67,-76.18"/>
<polyline fill="none" stroke="black" points="337.67,-76.18 337.67,-95.18 "/>
<text text-anchor="start" x="324.67" y="-82.58" font-family="sans-serif" font-size="12.00">D</text>
<polygon fill="white" stroke="transparent" points="337.67,-76.18 337.67,-95.18 367.67,-95.18 367.67,-76.18 337.67,-76.18"/>
<polygon fill="none" stroke="black" points="337.67,-76.18 337.67,-95.18 367.67,-95.18 367.67,-76.18 337.67,-76.18"/>
<text text-anchor="start" x="340.67" y="-82.58" font-family="sans-serif" font-size="12.00">ACL</text>
<polygon fill="white" stroke="transparent" points="305.8,-142.23 305.8,-159.23 319.8,-159.23 319.8,-142.23 305.8,-142.23"/>
<text text-anchor="start" x="307.8" y="-147.63" font-family="sans-serif" font-size="12.00">U</text>
</g>
<!-- GestionPagos&#45;&gt;Seguridad -->
<g id="edge6" class="edge">
<title>GestionPagos&#45;&gt;Seguridad</title>
<path fill="none" stroke="black" stroke-width="2" d="M496.67,-257.81C498.01,-217.58 494.99,-159.76 472.59,-115.11 467.33,-104.61 459.64,-94.95 451.23,-86.46"/>
<text text-anchor="middle" x="572.09" y="-189.95" font-family="sans-serif" font-size="12.00"> &#160;&#160;&#160;&#160;&#160;&#160;&#160;&#160;&#160;&#160;&#160;&#160;&#160;&#160;&#160;&#160;&#160;&#160;&#160;&#160;&#160;&#160;&#160;&#160;&#160;&#160;&#160;&#160;&#160;&#160;&#160;&#160;&#160;&#160;&#160;&#160;&#160;&#160;&#160;</text>
<polygon fill="white" stroke="transparent" points="428.23,-76.46 428.23,-95.46 444.23,-95.46 444.23,-76.46 428.23,-76.46"/>
<polyline fill="none" stroke="black" points="444.23,-76.46 444.23,-95.46 "/>
<text text-anchor="start" x="431.23" y="-82.86" font-family="sans-serif" font-size="12.00">D</text>
<polygon fill="white" stroke="transparent" points="444.23,-76.46 444.23,-95.46 474.23,-95.46 474.23,-76.46 444.23,-76.46"/>
<polygon fill="none" stroke="black" points="444.23,-76.46 444.23,-95.46 474.23,-95.46 474.23,-76.46 444.23,-76.46"/>
<text text-anchor="start" x="447.23" y="-82.86" font-family="sans-serif" font-size="12.00">ACL</text>
<polygon fill="white" stroke="transparent" points="489.67,-248.81 489.67,-265.81 503.67,-265.81 503.67,-248.81 489.67,-248.81"/>
<text text-anchor="start" x="491.67" y="-254.21" font-family="sans-serif" font-size="12.00">U</text>
</g>
</g>
</svg>
